<svg width="31" height="31" viewBox="0 0 31 31" fill="none" xmlns="http://www.w3.org/2000/svg">
<g clip-path="url(#clip0_9211_27850)">
<path d="M25.1719 11.2725H27.3014C27.5577 11.2725 27.7673 11.4821 27.7673 11.7383V12.7365C27.7673 12.9928 27.5576 13.2024 27.3014 13.2024H25.1719V11.2725Z" fill="#A4A9AD"/>
<path opacity="0.1" d="M26.1645 11.2725H25.1719V13.2023H26.1645V11.2725Z" fill="black"/>
<path d="M5.82966 11.2725H3.70022C3.44399 11.2725 3.23438 11.4821 3.23438 11.7383V12.7365C3.23438 12.9928 3.44405 13.2024 3.70022 13.2024H5.82972L5.82966 11.2725Z" fill="#A4A9AD"/>
<path opacity="0.1" d="M5.82855 11.2725H4.83594V13.2023H5.82855V11.2725Z" fill="black"/>
<path d="M21.3761 5.47687H19.0025V3.58926C19.0025 3.19497 18.6693 2.86191 18.2751 2.86191H12.7182C12.3239 2.86191 11.9908 3.19503 11.9908 3.58926V5.47687H9.61719V3.58926C9.61719 1.87941 11.0083 0.488281 12.7182 0.488281H18.2751C19.985 0.488281 21.3761 1.87935 21.3761 3.58926V5.47687Z" fill="#A4A9AD"/>
<path opacity="0.1" d="M9.61719 3.58921V5.47682H11.9908V3.58921C11.9908 3.5174 12.0021 3.44789 12.0225 3.38184H9.62476C9.62034 3.45056 9.61719 3.51946 9.61719 3.58921ZM21.3683 3.3819H18.9708C18.9913 3.44795 19.0025 3.51752 19.0025 3.58927V5.47688H21.3761V3.58927C21.3761 3.51946 21.3729 3.45056 21.3683 3.3819Z" fill="black"/>
<path d="M24.3974 5.295C24.3974 4.66331 23.8805 4.14648 23.2488 4.14648H7.75795C7.12626 4.14648 6.60938 4.66331 6.60938 5.295V6.93734C6.60938 7.56902 7.12626 8.08585 7.75795 8.08585H23.2488C23.8805 8.08585 24.3974 7.56896 24.3974 6.93734V5.295Z" fill="#D1D3D3"/>
<path opacity="0.05" d="M24.3747 5.06934H6.63202C6.61731 5.1423 6.60938 5.21749 6.60938 5.29457V6.93691C6.60938 7.56859 7.12626 8.08542 7.75795 8.08542H23.2488C23.8805 8.08542 24.3974 7.56853 24.3974 6.93691V5.29463C24.3974 5.21756 24.3894 5.1423 24.3747 5.06934Z" fill="black"/>
<path d="M5.42969 8.39648V28.7616C5.42969 29.7242 6.21716 30.5118 7.17986 30.5118H23.8219C24.7846 30.5118 25.5721 29.7242 25.5721 28.7616V8.39648H5.42969Z" fill="#D1D3D3"/>
<path opacity="0.1" d="M5.42969 27.7871V28.761C5.42969 29.7236 6.21716 30.5112 7.17986 30.5112H23.8219C24.7846 30.5112 25.5721 29.7236 25.5721 28.761V27.7871H5.42969Z" fill="black"/>
<path opacity="0.1" d="M25.5722 8.39551H5.42969V10.8863H25.5722V8.39551Z" fill="black"/>
<path d="M26.9447 7.1368C26.9447 6.50505 26.4279 5.98828 25.7962 5.98828H5.21102C4.57933 5.98828 4.0625 6.50511 4.0625 7.1368V8.3197C4.0625 8.95139 4.57933 9.46822 5.21102 9.46822H25.7962C26.4279 9.46822 26.9447 8.95139 26.9447 8.3197V7.1368Z" fill="#A4A9AD"/>
<path d="M15.5072 25.7515C14.8517 25.7515 14.3203 25.2201 14.3203 24.5646V13.4252C14.3203 12.7697 14.8516 12.2383 15.5072 12.2383C16.1627 12.2383 16.694 12.7696 16.694 13.4252V24.5646C16.694 25.2202 16.1627 25.7515 15.5072 25.7515Z" fill="#A4A9AD"/>
<path d="M10.015 25.7515C9.35949 25.7515 8.82812 25.2201 8.82812 24.5646V13.4252C8.82812 12.7697 9.35949 12.2383 10.015 12.2383C10.6706 12.2383 11.2019 12.7696 11.2019 13.4252V24.5646C11.2018 25.2202 10.6705 25.7515 10.015 25.7515Z" fill="#A4A9AD"/>
<path d="M20.9915 25.7515C20.336 25.7515 19.8047 25.2201 19.8047 24.5646V13.4252C19.8047 12.7697 20.336 12.2383 20.9915 12.2383C21.6471 12.2383 22.1784 12.7696 22.1784 13.4252V24.5646C22.1784 25.2202 21.6471 25.7515 20.9915 25.7515Z" fill="#A4A9AD"/>
</g>
<defs>
<clipPath id="clip0_9211_27850">
<rect width="31" height="31" fill="white"/>
</clipPath>
</defs>
</svg>
