<svg width="30" height="30" viewBox="0 0 30 30" fill="none" xmlns="http://www.w3.org/2000/svg">
<g clip-path="url(#clip0_9225_28017)">
<path d="M15 29.4141C22.9607 29.4141 29.4141 22.9607 29.4141 15C29.4141 7.03933 22.9607 0.585938 15 0.585938C7.03933 0.585938 0.585938 7.03933 0.585938 15C0.585938 22.9607 7.03933 29.4141 15 29.4141Z" fill="#A4A9AD"/>
<path d="M14.9961 27.0117C21.63 27.0117 27.0078 21.6339 27.0078 15C27.0078 8.36611 21.63 2.98828 14.9961 2.98828C8.3622 2.98828 2.98438 8.36611 2.98438 15C2.98438 21.6339 8.3622 27.0117 14.9961 27.0117Z" fill="#FF8379"/>
<path d="M22.2203 10.2662L19.7344 7.78027L15.0008 12.5138L10.2671 7.78027L7.78125 10.2662L12.5148 14.9998L7.78125 19.7334L10.2671 22.2193L15.0008 17.4857L19.7344 22.2193L22.2203 19.7334L17.4867 14.9998L22.2203 10.2662Z" fill="#EDEFF1"/>
</g>
<defs>
<clipPath id="clip0_9225_28017">
<rect width="30" height="30" fill="white"/>
</clipPath>
</defs>
</svg>
