<svg width="31" height="31" viewBox="0 0 31 31" fill="none" xmlns="http://www.w3.org/2000/svg">
<g clip-path="url(#clip0_8286_29375)">
<path d="M30.3633 8.97013C30.3636 9.30948 30.297 9.64556 30.1674 9.95916C30.0377 10.2728 29.8475 10.5578 29.6077 10.7978L25.9523 14.4468L22.2969 10.7978L25.9523 7.14242C26.1922 6.90223 26.4771 6.71169 26.7907 6.58169C27.1044 6.45168 27.4405 6.38477 27.78 6.38477C28.1195 6.38477 28.4557 6.45168 28.7693 6.58169C29.0829 6.71169 29.3678 6.90223 29.6077 7.14242C29.8529 7.38769 30.0462 7.67982 30.176 8.00138C30.2989 8.30962 30.3625 8.6383 30.3633 8.97013Z" fill="#6FABE6"/>
<path d="M26.4034 16.7331C26.2834 16.8532 26.141 16.9485 25.9842 17.0135C25.8274 17.0785 25.6593 17.112 25.4895 17.112C25.3198 17.112 25.1517 17.0785 24.9949 17.0135C24.8381 16.9485 24.6956 16.8532 24.5757 16.7331L20.0226 12.1671C19.8229 11.9656 19.6952 11.7041 19.659 11.4228C19.6228 11.1415 19.6802 10.8561 19.8224 10.6106C19.8746 10.5084 19.9421 10.4148 20.0226 10.3329C20.1425 10.2128 20.285 10.1176 20.4418 10.0526C20.5986 9.98756 20.7667 9.9541 20.9364 9.9541C21.1062 9.9541 21.2742 9.98756 21.431 10.0526C21.5879 10.1176 21.7303 10.2128 21.8503 10.3329L26.4163 14.899C26.4962 14.9789 26.5637 15.0703 26.6165 15.1702C26.7586 15.4177 26.8148 15.7052 26.7762 15.988C26.7377 16.2707 26.6066 16.5328 26.4034 16.7331Z" fill="#9FDBF3"/>
<path d="M26.6016 15.1767C26.5486 15.2746 26.4811 15.3639 26.4014 15.4415C26.2814 15.5616 26.1389 15.6568 25.9821 15.7218C25.8253 15.7868 25.6572 15.8203 25.4875 15.8203C25.3178 15.8203 25.1497 15.7868 24.9929 15.7218C24.8361 15.6568 24.6936 15.5616 24.5736 15.4415L20.0205 10.8754C19.9407 10.7978 19.8732 10.7085 19.8203 10.6106C19.8726 10.5084 19.9401 10.4148 20.0205 10.3329C20.1405 10.2128 20.2829 10.1176 20.4397 10.0526C20.5965 9.98756 20.7646 9.9541 20.9344 9.9541C21.1041 9.9541 21.2722 9.98756 21.429 10.0526C21.5858 10.1176 21.7283 10.2128 21.8482 10.3329L26.4143 14.899C26.4901 14.9817 26.5533 15.0753 26.6016 15.1767Z" fill="#B2E5FB"/>
<path d="M24.2609 16.416L24.4023 16.2746L24.2609 16.1331L23.2923 15.1646L23.2921 15.1644L20.6121 12.4779L20.4707 12.3361L20.3291 12.4777L9.2855 23.5213C9.28546 23.5213 9.28543 23.5214 9.28539 23.5214C8.85744 23.9484 8.51789 24.4557 8.28619 25.0141C8.06512 25.5468 7.94637 26.1162 7.93586 26.6925L6.62506 28.0095C6.39073 28.2391 6.24271 28.5425 6.20589 28.8685C6.17293 29.094 6.19352 29.3242 6.26601 29.5404L6.45563 29.4768L6.26601 29.5404C6.3388 29.7575 6.46185 29.9543 6.62514 30.1147C6.76352 30.2531 6.92778 30.3629 7.10856 30.4378C7.28965 30.5129 7.48375 30.5515 7.67978 30.5515C7.87581 30.5515 8.06992 30.5129 8.251 30.4378C8.43205 30.3628 8.59654 30.2528 8.73506 30.1141C8.73508 30.1141 8.73511 30.114 8.73514 30.114L10.0464 28.8027C11.239 28.7806 12.378 28.2977 13.2235 27.4534L13.2236 27.4533L24.2609 16.416Z" fill="#EDEBF2" stroke="#424242" stroke-width="0.4"/>
<circle cx="7.7474" cy="7.75033" r="6.65833" fill="#7FDBFF" stroke="#424242" stroke-width="0.4"/>
</g>
<defs>
<clipPath id="clip0_8286_29375">
<rect width="31" height="31" fill="white"/>
</clipPath>
</defs>
</svg>
