<svg width="29" height="29" viewBox="0 0 29 29" fill="none" xmlns="http://www.w3.org/2000/svg">
<g clip-path="url(#clip0_9211_27833)">
<path d="M5.57176 11.5181L3.86719 13.2227L15.7821 25.1376L17.4867 23.433L5.57176 11.5181Z" fill="#DB5669"/>
<path d="M16.5789 22.5294C16.3663 22.739 16.0798 22.8565 15.7814 22.8565C15.4829 22.8565 15.1964 22.739 14.9839 22.5294L4.77344 12.319L5.57094 11.5215L16.5789 22.5294Z" fill="#F26674"/>
<path d="M27.6949 13.2253L17.4845 23.4357L5.57031 11.5216L15.7807 1.31115C16.2335 0.861041 16.846 0.608398 17.4845 0.608398C18.1229 0.608398 18.7354 0.861041 19.1882 1.31115L27.6949 9.81781C28.145 10.2706 28.3976 10.8831 28.3976 11.5216C28.3976 12.16 28.145 12.7725 27.6949 13.2253Z" fill="#6FABE6"/>
<path d="M28.2266 10.6153C28.1034 10.9134 27.9227 11.1844 27.6949 11.4128L19.1943 19.9376C18.9698 20.1623 18.7033 20.3406 18.4099 20.4622C18.1165 20.5838 17.8021 20.6464 17.4845 20.6464C17.1669 20.6464 16.8524 20.5838 16.559 20.4622C16.2657 20.3406 15.9991 20.1623 15.7747 19.9376L6.47656 10.6153L15.7807 1.31115C16.2335 0.861041 16.846 0.608398 17.4845 0.608398C18.1229 0.608398 18.7354 0.861041 19.1882 1.31115C28.4018 10.5368 27.9607 9.9749 28.2266 10.6153Z" fill="#82BCF4"/>
<path d="M23.8616 10.271L16.2068 17.9016L11.1016 12.7964L18.7322 5.1416L23.8616 10.271Z" fill="#DB5669"/>
<path d="M22.9631 9.34056L20.4135 11.8901C19.2998 13.0036 17.7894 13.6291 16.2146 13.6291C14.6397 13.6291 13.1294 13.0036 12.0156 11.8901L18.734 5.1416L22.9631 9.34056Z" fill="#F26674"/>
<path d="M14.9278 24.2876L11.5263 27.689C11.0738 28.1373 10.4625 28.3888 9.82557 28.3888C9.18859 28.3888 8.57737 28.1373 8.12484 27.689L1.31588 20.8801C0.981292 20.545 0.752529 20.1189 0.658008 19.6549C0.563486 19.1909 0.607371 18.7094 0.784212 18.2701C1.03192 17.6659 0.983587 17.8109 4.71734 14.0771L14.9278 24.2876Z" fill="#DAD7E5"/>
<path d="M14.0185 23.3813L11.5233 25.8765C11.0708 26.3248 10.4596 26.5763 9.8226 26.5763C9.18563 26.5763 8.57441 26.3248 8.12187 25.8765C1.63917 19.3938 0.78125 18.6567 0.78125 18.2701C1.02896 17.6659 0.980625 17.8109 4.71437 14.0771L14.0185 23.3813Z" fill="#EDEBF2"/>
</g>
<defs>
<clipPath id="clip0_9211_27833">
<rect width="29" height="29" fill="white"/>
</clipPath>
</defs>
</svg>
