<svg width="36" height="35" viewBox="0 0 36 35" fill="none" xmlns="http://www.w3.org/2000/svg">
<path fill-rule="evenodd" clip-rule="evenodd" d="M6.17005 4.375H26.9802L31.1249 8.51977V29.3297C31.1249 30.0421 30.5421 30.6249 29.8297 30.6249H6.1702C5.45784 30.6249 4.875 30.0421 4.875 29.3297V5.6702C4.875 4.95782 5.45784 4.375 6.1702 4.375L6.17005 4.375Z" fill="#01579B"/>
<path fill-rule="evenodd" clip-rule="evenodd" d="M10.2344 4.375H25.7664V10.8943C25.7664 11.771 25.0509 12.4864 24.1743 12.4864H11.8264C10.9498 12.4864 10.2344 11.771 10.2344 10.8943L10.2344 4.375Z" fill="#0277BD"/>
<path fill-rule="evenodd" clip-rule="evenodd" d="M25.8955 30.6256H10.0938V22.3793C10.0938 21.4282 10.8696 20.6523 11.8207 20.6523H24.1686C25.1197 20.6523 25.8956 21.4282 25.8956 22.3793V30.6256H25.8955Z" fill="#0277BD"/>
<path fill-rule="evenodd" clip-rule="evenodd" d="M10.7422 4.375H25.2488V10.8943C25.2488 11.488 24.7631 11.9737 24.1694 11.9737H11.8215C11.2279 11.9737 10.7422 11.488 10.7422 10.8943L10.7422 4.375Z" fill="#EEEEEE"/>
<path fill-rule="evenodd" clip-rule="evenodd" d="M10.7422 30.6245H25.2488V22.3782C25.2488 21.7845 24.7631 21.2988 24.1694 21.2988H11.8215C11.2279 21.2988 10.7422 21.7845 10.7422 22.3782L10.7422 30.6245Z" fill="#EEEEEE"/>
<path d="M23.2542 4.375H20.0703V10.5921H23.2542V4.375Z" fill="#424242"/>
<path d="M12.8203 24.7637H23.1822V25.4187H12.8203V24.7637Z" fill="#757575"/>
<path d="M12.8203 27.6475H23.1822V28.3027H12.8203V27.6475Z" fill="#757575"/>
</svg>
