<svg width="88" height="11" viewBox="0 0 88 11" fill="none" xmlns="http://www.w3.org/2000/svg">
<path d="M0.884632 9V2.45455H3.21773C3.72696 2.45455 4.14884 2.54723 4.48335 2.7326C4.81787 2.91797 5.06823 3.17152 5.23442 3.49325C5.40061 3.81286 5.48371 4.17294 5.48371 4.57351C5.48371 4.97621 5.39955 5.33842 5.23122 5.66016C5.06503 5.97976 4.81361 6.23331 4.47696 6.42081C4.14245 6.60618 3.72164 6.69886 3.21453 6.69886H1.61013V5.86151H3.12504C3.44678 5.86151 3.70779 5.80611 3.90807 5.69531C4.10835 5.58239 4.25537 5.42898 4.34912 5.23509C4.44287 5.04119 4.48975 4.82067 4.48975 4.57351C4.48975 4.32635 4.44287 4.10689 4.34912 3.91513C4.25537 3.72337 4.10729 3.57315 3.90487 3.46449C3.70459 3.35582 3.44039 3.30149 3.11226 3.30149H1.8722V9H0.884632ZM8.57107 9.09908C8.11084 9.09908 7.70921 8.99361 7.36617 8.78267C7.02313 8.57173 6.75679 8.27663 6.56716 7.89737C6.37753 7.51811 6.28271 7.07493 6.28271 6.56783C6.28271 6.05859 6.37753 5.61328 6.56716 5.23189C6.75679 4.8505 7.02313 4.55433 7.36617 4.34339C7.70921 4.13246 8.11084 4.02699 8.57107 4.02699C9.03129 4.02699 9.43293 4.13246 9.77597 4.34339C10.119 4.55433 10.3853 4.8505 10.575 5.23189C10.7646 5.61328 10.8594 6.05859 10.8594 6.56783C10.8594 7.07493 10.7646 7.51811 10.575 7.89737C10.3853 8.27663 10.119 8.57173 9.77597 8.78267C9.43293 8.99361 9.03129 9.09908 8.57107 9.09908ZM8.57426 8.29688C8.87256 8.29688 9.11972 8.21804 9.31574 8.06037C9.51176 7.9027 9.65665 7.69283 9.7504 7.43075C9.84628 7.16868 9.89422 6.87997 9.89422 6.56463C9.89422 6.25142 9.84628 5.96378 9.7504 5.7017C9.65665 5.4375 9.51176 5.2255 9.31574 5.0657C9.11972 4.90589 8.87256 4.82599 8.57426 4.82599C8.27384 4.82599 8.02455 4.90589 7.82639 5.0657C7.63037 5.2255 7.48442 5.4375 7.38854 5.7017C7.29479 5.96378 7.24791 6.25142 7.24791 6.56463C7.24791 6.87997 7.29479 7.16868 7.38854 7.43075C7.48442 7.69283 7.63037 7.9027 7.82639 8.06037C8.02455 8.21804 8.27384 8.29688 8.57426 8.29688ZM12.841 9L11.3964 4.09091H12.3839L13.3459 7.69602H13.3939L14.3591 4.09091H15.3466L16.3054 7.68004H16.3534L17.309 4.09091H18.2966L16.8552 9H15.8804L14.8832 5.45561H14.8097L13.8125 9H12.841ZM21.1698 9.09908C20.6861 9.09908 20.2696 8.99574 19.9201 8.78906C19.5728 8.58026 19.3044 8.28729 19.1147 7.91016C18.9272 7.53089 18.8335 7.08665 18.8335 6.57741C18.8335 6.07457 18.9272 5.63139 19.1147 5.24787C19.3044 4.86435 19.5686 4.56499 19.9074 4.34979C20.2483 4.13459 20.6467 4.02699 21.1027 4.02699C21.3797 4.02699 21.6481 4.0728 21.9081 4.16442C22.168 4.25604 22.4013 4.39986 22.608 4.59588C22.8147 4.7919 22.9777 5.04652 23.097 5.35973C23.2163 5.67081 23.276 6.04901 23.276 6.49432V6.8331H19.3736V6.11719H22.3395C22.3395 5.86577 22.2884 5.64311 22.1861 5.44922C22.0839 5.2532 21.94 5.09872 21.7547 4.9858C21.5714 4.87287 21.3562 4.81641 21.1091 4.81641C20.8406 4.81641 20.6062 4.88246 20.4059 5.01456C20.2078 5.14453 20.0544 5.31499 19.9457 5.52592C19.8392 5.73473 19.7859 5.96165 19.7859 6.20668V6.76598C19.7859 7.09411 19.8434 7.37322 19.9585 7.60334C20.0757 7.83345 20.2387 8.00923 20.4475 8.13068C20.6563 8.25 20.9003 8.30966 21.1794 8.30966C21.3605 8.30966 21.5256 8.28409 21.6748 8.23295C21.8239 8.17969 21.9528 8.10085 22.0615 7.99645C22.1701 7.89205 22.2532 7.76314 22.3108 7.60973L23.2152 7.77273C23.1428 8.03906 23.0128 8.27237 22.8253 8.47266C22.64 8.67081 22.4066 8.82528 22.1254 8.93608C21.8463 9.04474 21.5277 9.09908 21.1698 9.09908ZM24.3362 9V4.09091H25.2599V4.87074H25.311C25.4005 4.60653 25.5582 4.39879 25.784 4.24751C26.012 4.0941 26.2698 4.0174 26.5575 4.0174C26.6171 4.0174 26.6875 4.01953 26.7684 4.02379C26.8515 4.02805 26.9165 4.03338 26.9634 4.03977V4.95384C26.925 4.94318 26.8568 4.93146 26.7588 4.91868C26.6608 4.90376 26.5628 4.89631 26.4648 4.89631C26.2389 4.89631 26.0376 4.94425 25.8608 5.04013C25.686 5.13388 25.5475 5.26491 25.4453 5.43324C25.343 5.59943 25.2919 5.78906 25.2919 6.00213V9H24.3362ZM29.7303 9.09908C29.2467 9.09908 28.8301 8.99574 28.4807 8.78906C28.1334 8.58026 27.8649 8.28729 27.6753 7.91016C27.4878 7.53089 27.394 7.08665 27.394 6.57741C27.394 6.07457 27.4878 5.63139 27.6753 5.24787C27.8649 4.86435 28.1291 4.56499 28.4679 4.34979C28.8088 4.13459 29.2073 4.02699 29.6632 4.02699C29.9402 4.02699 30.2087 4.0728 30.4686 4.16442C30.7286 4.25604 30.9619 4.39986 31.1685 4.59588C31.3752 4.7919 31.5382 5.04652 31.6575 5.35973C31.7769 5.67081 31.8365 6.04901 31.8365 6.49432V6.8331H27.9342V6.11719H30.9001C30.9001 5.86577 30.8489 5.64311 30.7467 5.44922C30.6444 5.2532 30.5006 5.09872 30.3152 4.9858C30.132 4.87287 29.9168 4.81641 29.6696 4.81641C29.4011 4.81641 29.1668 4.88246 28.9665 5.01456C28.7683 5.14453 28.6149 5.31499 28.5063 5.52592C28.3997 5.73473 28.3465 5.96165 28.3465 6.20668V6.76598C28.3465 7.09411 28.404 7.37322 28.519 7.60334C28.6362 7.83345 28.7992 8.00923 29.008 8.13068C29.2168 8.25 29.4608 8.30966 29.7399 8.30966C29.921 8.30966 30.0862 8.28409 30.2353 8.23295C30.3845 8.17969 30.5134 8.10085 30.622 7.99645C30.7307 7.89205 30.8138 7.76314 30.8713 7.60973L31.7758 7.77273C31.7033 8.03906 31.5734 8.27237 31.3859 8.47266C31.2005 8.67081 30.9672 8.82528 30.6859 8.93608C30.4068 9.04474 30.0883 9.09908 29.7303 9.09908ZM34.7345 9.09588C34.3382 9.09588 33.9845 8.99467 33.6734 8.79226C33.3645 8.58771 33.1216 8.29687 32.9447 7.91974C32.77 7.54048 32.6827 7.08558 32.6827 6.55504C32.6827 6.0245 32.7711 5.57067 32.9479 5.19354C33.1269 4.81641 33.3719 4.5277 33.683 4.32741C33.9941 4.12713 34.3467 4.02699 34.7409 4.02699C35.0456 4.02699 35.2906 4.07812 35.476 4.1804C35.6635 4.28054 35.8084 4.39773 35.9106 4.53196C36.015 4.66619 36.096 4.78445 36.1535 4.88672H36.2111V2.45455H37.1667V9H36.2334V8.23615H36.1535C36.096 8.34055 36.0129 8.45987 35.9043 8.59411C35.7977 8.72834 35.6507 8.84553 35.4632 8.94567C35.2757 9.04581 35.0328 9.09588 34.7345 9.09588ZM34.9454 8.28089C35.2203 8.28089 35.4525 8.20845 35.6422 8.06357C35.8339 7.91655 35.9788 7.71307 36.0768 7.45312C36.177 7.19318 36.2271 6.89062 36.2271 6.54545C36.2271 6.20455 36.178 5.90625 36.08 5.65057C35.982 5.39489 35.8382 5.19567 35.6486 5.05291C35.4589 4.91016 35.2246 4.83878 34.9454 4.83878C34.6578 4.83878 34.4181 4.91335 34.2263 5.0625C34.0346 5.21165 33.8897 5.41513 33.7917 5.67294C33.6958 5.93075 33.6479 6.22159 33.6479 6.54545C33.6479 6.87358 33.6969 7.16868 33.7949 7.43075C33.8929 7.69283 34.0378 7.90057 34.2295 8.05398C34.4234 8.20526 34.6621 8.28089 34.9454 8.28089ZM40.9891 9V2.45455H41.9447V4.88672H42.0023C42.0577 4.78445 42.1376 4.66619 42.242 4.53196C42.3464 4.39773 42.4913 4.28054 42.6766 4.1804C42.862 4.07812 43.107 4.02699 43.4117 4.02699C43.808 4.02699 44.1617 4.12713 44.4728 4.32741C44.7839 4.5277 45.0278 4.81641 45.2047 5.19354C45.3837 5.57067 45.4731 6.0245 45.4731 6.55504C45.4731 7.08558 45.3847 7.54048 45.2079 7.91974C45.031 8.29687 44.7881 8.58771 44.4792 8.79226C44.1702 8.99467 43.8176 9.09588 43.4213 9.09588C43.123 9.09588 42.879 9.04581 42.6894 8.94567C42.5019 8.84553 42.3549 8.72834 42.2484 8.59411C42.1418 8.45987 42.0598 8.34055 42.0023 8.23615H41.9224V9H40.9891ZM41.9256 6.54545C41.9256 6.89062 41.9756 7.19318 42.0758 7.45312C42.1759 7.71307 42.3208 7.91655 42.5104 8.06357C42.7001 8.20845 42.9323 8.28089 43.2072 8.28089C43.4927 8.28089 43.7313 8.20526 43.9231 8.05398C44.1148 7.90057 44.2597 7.69283 44.3577 7.43075C44.4579 7.16868 44.5079 6.87358 44.5079 6.54545C44.5079 6.22159 44.4589 5.93075 44.3609 5.67294C44.265 5.41513 44.1202 5.21165 43.9263 5.0625C43.7345 4.91335 43.4948 4.83878 43.2072 4.83878C42.9302 4.83878 42.6958 4.91016 42.504 5.05291C42.3144 5.19567 42.1706 5.39489 42.0726 5.65057C41.9746 5.90625 41.9256 6.20455 41.9256 6.54545ZM46.9833 10.8409C46.8405 10.8409 46.7105 10.8292 46.5934 10.8058C46.4762 10.7844 46.3888 10.761 46.3313 10.7354L46.5614 9.95241C46.7361 9.99929 46.8916 10.0195 47.028 10.0131C47.1644 10.0067 47.2848 9.95561 47.3892 9.85973C47.4957 9.76385 47.5894 9.60724 47.6704 9.38991L47.7887 9.06392L45.9925 4.09091H47.0152L48.2585 7.90057H48.3096L49.5529 4.09091H50.5788L48.5557 9.65518C48.462 9.91087 48.3426 10.1271 48.1978 10.304C48.0529 10.483 47.8803 10.6172 47.68 10.7067C47.4797 10.7962 47.2475 10.8409 46.9833 10.8409Z" fill="#575756"/>
<path d="M59.8828 5.51806H61.6599C62.188 5.51806 62.6946 5.30891 63.0681 4.93662C63.4415 4.56433 63.6514 4.05939 63.6514 3.5329V1.03516H60.9158C60.6418 1.03529 60.3791 1.14389 60.1853 1.33709C59.9916 1.53028 59.8828 1.79225 59.8828 2.0654V5.51806Z" fill="#3EA3DC"/>
<path d="M59.0291 1.03516H57.033C56.759 1.03529 56.4963 1.14389 56.3025 1.33709C56.1088 1.53028 56 1.79225 56 2.0654V7.91908C55.9999 8.05438 56.0266 8.18836 56.0785 8.31338C56.1304 8.4384 56.2064 8.55201 56.3024 8.64773C56.3983 8.74344 56.5122 8.81939 56.6376 8.87122C56.7629 8.92306 56.8973 8.94977 57.033 8.94984H58.5139C58.6509 8.94971 58.7822 8.89538 58.879 8.79879C58.9758 8.7022 59.0302 8.57125 59.0302 8.43472L59.0291 1.03516Z" fill="#FFCC00"/>
<path d="M61.9969 6.45052H59.8828V8.43569C59.8828 8.57231 59.9373 8.70333 60.0342 8.79993C60.1311 8.89654 60.2625 8.95081 60.3996 8.95081H62.6546C62.9183 8.95068 63.1712 8.84615 63.3576 8.66021C63.5441 8.47427 63.6488 8.22214 63.6488 7.95925V6.56098H63.6519V5.56738C63.4704 5.83915 63.2243 6.06199 62.9356 6.21607C62.6469 6.37015 62.3244 6.45069 61.9969 6.45052Z" fill="#86BC25"/>
<path d="M66.3501 1.19914C66.4158 1.2634 66.4675 1.34044 66.502 1.42547C66.5365 1.51049 66.5531 1.60169 66.5508 1.69339C66.5532 1.78426 66.5366 1.87464 66.502 1.95876C66.4675 2.04289 66.4157 2.11893 66.3501 2.18204C66.2807 2.24774 66.1989 2.2989 66.1093 2.33247C66.0197 2.36605 65.9243 2.38136 65.8287 2.37751C65.7348 2.3807 65.6412 2.36504 65.5535 2.33146C65.4658 2.29789 65.3857 2.24707 65.3181 2.18204C65.2525 2.11893 65.2007 2.04289 65.1662 1.95876C65.1316 1.87464 65.115 1.78426 65.1174 1.69339C65.1153 1.60195 65.132 1.51104 65.1665 1.42629C65.201 1.34154 65.2526 1.26475 65.3181 1.20066C65.385 1.1344 65.4649 1.08247 65.5527 1.04807C65.6405 1.01367 65.7344 0.997525 65.8287 1.00062C65.9246 0.996606 66.0203 1.01214 66.11 1.04628C66.1996 1.08041 66.2813 1.13243 66.3501 1.19914Z" fill="#575756"/>
<path d="M66.5487 2.87598H65.125V8.90679H66.5487V2.87598Z" fill="#575756"/>
<path d="M72.0652 1.68839C72.6098 2.09561 72.8822 2.70541 72.8822 3.5178C72.8822 4.36785 72.608 5.00531 72.0595 5.43017C71.5111 5.85503 70.7809 6.06746 69.8689 6.06746H68.9676V8.90522H67.5V1.0791H69.7683C70.7545 1.0791 71.5201 1.2822 72.0652 1.68839ZM70.9474 4.64068C71.2146 4.42283 71.348 4.04785 71.3477 3.51576C71.3477 2.60666 70.8177 2.15211 69.7576 2.15211H68.9676V4.96798H69.7576C70.2835 4.96934 70.6801 4.86177 70.9474 4.64527V4.64068Z" fill="#575756"/>
<path d="M76.9996 2.79719L76.755 4.17154C76.5843 4.12808 76.4088 4.10569 76.2326 4.10486C75.8838 4.10486 75.6336 4.27079 75.4094 4.47644C75.1746 4.69175 74.9422 5.04552 74.9315 5.61256V8.90487H73.5078V2.87507H74.742L74.8758 4.02799C75.0164 3.60653 75.2207 3.28313 75.4886 3.05781C75.7445 2.83642 76.073 2.71618 76.4118 2.71982C76.6104 2.71792 76.8083 2.74397 76.9996 2.79719Z" fill="#575756"/>
<path d="M82.1659 5.66833C82.1659 4.73751 81.9397 4.01132 81.4873 3.48975C81.0349 2.96818 80.3972 2.70858 79.5744 2.71095C79.0331 2.71095 78.5661 2.84669 78.1732 3.11817C77.7718 3.39799 77.4592 3.7866 77.2724 4.238C77.0648 4.71308 76.9609 5.2506 76.9609 5.85056C76.9609 6.79665 77.2038 7.54321 77.6896 8.09023C78.1754 8.63725 78.8668 8.91059 79.7639 8.91025C80.5645 8.91025 81.291 8.64794 81.9433 8.12332L81.7855 6.96174C81.6495 7.08841 81.5054 7.20607 81.354 7.31398C81.1263 7.47463 80.8797 7.60678 80.6197 7.70745C80.3847 7.79157 80.1366 7.83311 79.8869 7.83012C79.4719 7.83012 79.1383 7.70813 78.8861 7.46414C78.6338 7.22015 78.4855 6.81294 78.4413 6.2425H82.1338C82.1547 5.93455 82.1659 5.74214 82.1659 5.66833ZM80.755 5.32475H78.4418C78.4786 4.76347 78.5953 4.35507 78.7921 4.09955C78.9889 3.84402 79.2612 3.7166 79.6091 3.71728C80.3731 3.71728 80.755 4.2302 80.755 5.25603V5.32475Z" fill="#575756"/>
<path d="M87.3756 3.51776C87.7313 4.05732 87.9094 4.8149 87.9097 5.79051C87.9097 6.39624 87.8188 6.93376 87.637 7.40307C87.4552 7.87239 87.1878 8.24007 86.8348 8.50611C86.4824 8.7725 86.0654 8.90552 85.5837 8.90518C84.9607 8.90518 84.4671 8.69088 84.1029 8.26229V10.6302L82.6797 10.8593V2.87487H83.9251L84.0028 3.59513C84.2122 3.3168 84.4823 3.0895 84.7927 2.93035C85.0833 2.78436 85.4044 2.70917 85.7298 2.71097C86.4712 2.71097 87.0198 2.9799 87.3756 3.51776ZM86.4191 5.8012C86.4191 5.08451 86.3265 4.56718 86.1413 4.24921C85.9561 3.93125 85.678 3.77244 85.3069 3.77278C85.067 3.77315 84.8333 3.84884 84.639 3.98911C84.4219 4.1434 84.2399 4.34166 84.1049 4.57091V7.20914C84.3793 7.61635 84.7389 7.81996 85.1839 7.81996C86.0077 7.81928 86.4195 7.14636 86.4191 5.8012Z" fill="#575756"/>
</svg>
